# xmcd
#
# Track frame offsets:
#	150
#	16597
#	36632
#	54470
#	70837
#	90120
#	113862
#	132452
#	155035
#	173620
#	192342
#
# Disc length: 2815 seconds
#
# Revision: 0
# Processed by: cddbd v1.5.1PL0 Copyright (c) Steve Scherf et al.
# Submitted via: dBpowerAMP V4.0
#
DISCID=8c0afd0b
DTITLE=Philippe Monteiro and Friends Lovers - Paké Ama
DYEAR=2005
DGENRE=Kizomba
TTITLE0=Philippe Monteiro - Paké Ama [Ft. Calú D'Brava]
TTITLE1=Philippe Monteiro - Amor [Ft. Gama and Stivie]
TTITLE2=Calú D'Brava - Nôs Flâm
TTITLE3=Philippe Monteiro - Controlu [Ft. Negras Badius]
TTITLE4=Philippe Monteiro - Praga D'Amor [Ft. Gama]
TTITLE5=Philippe Monteiro - Girls [Ft. Los Badius]
TTITLE6=Philippe Monteiro - Julie
TTITLE7=Philippe Monteiro - Modernidadi [Ft. Yuri]
TTITLE8=Philippe Monteiro - Fugitivo [Ft. Calú D'Brava and Grace Évora]
TTITLE9=Calú D'Brava - Visão
TTITLE10=Philippe Monteiro - Amabu [Ft. Carlos (Trata)]
EXTD=Tiago Jesus: www.lusoafrica.net
EXTT0=
EXTT1=
EXTT2=
EXTT3=
EXTT4=
EXTT5=
EXTT6=
EXTT7=
EXTT8=
EXTT9=
EXTT10=
PLAYORDER=
